<svg version="1.1" xmlns="http://www.w3.org/2000/svg" viewBox="0 0 734 325.5" width="734" height="325.5">
  <!-- svg-source:excalidraw -->
  
  <defs>
    <style>
      @font-face {
        font-family: "Virgil";
        src: url("https://excalidraw.com/Virgil.woff2");
      }
      @font-face {
        font-family: "Cascadia";
        src: url("https://excalidraw.com/Cascadia.woff2");
      }
    </style>
  </defs>
  <g stroke-linecap="round" transform="translate(94 114.5) rotate(0 27.5 37.5)"><path d="M0.13 -0.96 C19.6 1.26, 40.92 0.6, 56.61 -1.19 M-0.06 -0.74 C13.37 0.49, 26.19 0.19, 54.78 -0.76 M53.31 1.68 C55.26 23.81, 53.68 50.48, 56.19 74.68 M55.4 -0.65 C56.53 22.4, 55.32 46.18, 54.04 75 M55.31 73.65 C36.78 75.92, 15.29 77.25, -0.1 76.51 M55.59 75.07 C37.69 74.33, 22.37 75.71, 0.2 75.31 M1.93 76.55 C-0.33 49.11, -0.45 26.5, -1.59 -1.76 M0.06 74.13 C-0.78 46.56, 0.06 20.38, -0.56 0.18" stroke="#000000" stroke-width="1" fill="none"></path></g><g stroke-linecap="round" transform="translate(389 102.5) rotate(0 33 33)"><path d="M0.77 -0.97 C23.06 0.75, 48.27 -0.86, 64.42 0.77 M0.6 -0.73 C13.61 0.26, 28.23 1.01, 65.5 -0.86 M67.41 -0.73 C66.43 16.15, 65.58 35.16, 64.07 67.98 M65.87 0.52 C64.96 21.37, 66.06 42.05, 66.55 66 M65 64.48 C43.81 65.62, 21.32 64.86, -0.75 65.27 M65.02 65.2 C51.31 65.99, 37.76 65.36, 0.71 65.88 M0.13 66.07 C0.46 53.46, -1.45 39.88, 0.75 1.68 M0.29 66.86 C0.78 50.77, 0.33 34.54, 0.58 0.56" stroke="#000000" stroke-width="1" fill="none"></path></g><g stroke-linecap="round" transform="translate(10 52.5) rotate(0 92 100.5)"><path d="M0.1 0.8 C52.27 -0.28, 104.23 -1.41, 184.59 -0.71 M0.32 -0.14 C40.1 -0.75, 80.39 -0.01, 184.5 -0.11 M182.72 -1.59 C185.48 62.46, 184.2 126.08, 183.8 202.08 M184.74 0.2 C184.11 75.04, 184.13 151.34, 183.31 201.18 M184.52 202.41 C131.55 204.43, 82.83 204.58, -1.62 201.85 M184.57 200.68 C141.57 199.32, 99.64 200.02, 0.07 201.84 M1.24 201.26 C0.06 127.87, 2.63 56.81, 0.62 -1.3 M0.27 200.76 C-0.51 142.9, -0.76 84.06, 0.34 -0.35" stroke="#000000" stroke-width="1" fill="none"></path></g><g transform="translate(13 28.5) rotate(0 66.5 12.5)"><text x="0" y="18" font-family="Virgil, Segoe UI Emoji" font-size="20px" fill="#000000" text-anchor="start" style="white-space: pre;" direction="ltr">Orquestrador</text></g><g transform="translate(42 84.5) rotate(0 69 12.5)"><text x="0" y="18" font-family="Virgil, Segoe UI Emoji" font-size="20px" fill="#000000" text-anchor="start" style="white-space: pre;" direction="ltr">Coin-converter</text></g><g stroke-linecap="round" transform="translate(110.5 146) rotate(0 27.5 37.5)"><path d="M-0.18 -1.04 C10.44 1.31, 26.13 -1.49, 55 -1.47 M0.9 -0.05 C19.59 0.02, 39.99 -0.59, 55.53 0.47 M55.4 1.05 C53.58 17.52, 55.43 34.17, 56.03 74.28 M54.07 0.65 C55.37 26.12, 54.33 54.56, 55.05 74.82 M54.83 75.03 C36.48 72.95, 22.39 74.56, -1.56 73.33 M54.75 75.93 C37.55 75.2, 20.65 75.74, -0.28 74.33 M-0.5 74.74 C-0.86 58.44, 1.02 37.3, -1.67 0.64 M-0.35 75.26 C1.43 48.22, 1.38 21.37, 0.34 0.92" stroke="#000000" stroke-width="1" fill="none"></path></g><g stroke-linecap="round" transform="translate(535 248.5) rotate(0 30.5 30)"><path d="M0.97 0.99 C20.52 0.38, 40.12 1.63, 60.96 1.11 M0.61 0.47 C20.68 0.36, 40.81 0.48, 60.61 -0.16 M62.89 1.08 C59.68 13.4, 62.04 28.92, 62.11 60.5 M60.73 -0.83 C60.53 16.59, 60.66 33.41, 60.68 60.06 M59.67 60.57 C46.62 61.75, 32.6 61.24, -0.56 61.03 M61.58 60.15 C39.19 59.52, 16.53 59.38, -0.14 59.75 M-1.19 59.48 C1.49 38.21, 1.77 12.43, 0.56 -0.18 M0.57 60.23 C0.3 46.32, 0.48 32.11, -0.49 0.62" stroke="#000000" stroke-width="1" fill="none"></path></g><g transform="translate(529 222.5) rotate(0 38.5 12.5)"><text x="0" y="18" font-family="Virgil, Segoe UI Emoji" font-size="20px" fill="#000000" text-anchor="start" style="white-space: pre;" direction="ltr">mongodb</text></g><g stroke-linecap="round" transform="translate(293.5 255.5) rotate(0 30.5 30)"><path d="M0.59 0.38 C20.49 -0.01, 45.09 1.46, 60.16 0.39 M-0.02 -0.35 C11.49 0.94, 24.27 -0.14, 61.46 -0.21 M61.21 -1.86 C59.94 18.65, 61.25 34.83, 62.9 58.75 M60.86 -0.8 C61.02 20.96, 60.17 39.27, 61.27 60.77 M62.03 60.45 C38.55 61.89, 11.31 61.45, 1.12 60.58 M61.64 59.61 C44.06 61.11, 27.12 59.89, -0.85 60.25 M1.57 61.7 C0.78 39.34, -1.26 17.88, 0.67 1.58 M-0.54 60.27 C0.84 46.59, 0.52 33.99, -0.6 0.85" stroke="#000000" stroke-width="1" fill="none"></path></g><g transform="translate(298.5 222.5) rotate(0 23.5 12.5)"><text x="0" y="18" font-family="Virgil, Segoe UI Emoji" font-size="20px" fill="#000000" text-anchor="start" style="white-space: pre;" direction="ltr">redis</text></g><g transform="translate(366 70.5) rotate(0 73 12.5)"><text x="0" y="18" font-family="Virgil, Segoe UI Emoji" font-size="20px" fill="#000000" text-anchor="start" style="white-space: pre;" direction="ltr">Quote-manager</text></g><g stroke-linecap="round"><g transform="translate(401.50392649323067 180.5) rotate(0 -15.543928295561784 53.865719253139105)"><path d="M-0.35 -0.13 C-1.23 16.06, 0.83 80.92, -4.53 98.27 C-9.89 115.63, -27.72 102.87, -32.51 104.01 M1.66 -1.24 C0.55 15.58, 0.2 81.59, -5.54 99.36 C-11.27 117.13, -28.2 104.74, -32.75 105.38" stroke="#000000" stroke-width="1" fill="none"></path></g><g transform="translate(401.50392649323067 180.5) rotate(0 -15.543928295561784 53.865719253139105)"><path d="M-18.23 103.87 C-24.41 105.68, -28.54 105.27, -31.3 104.37 M-17.99 103.43 C-23.67 104.82, -29.75 104.42, -33.15 104.9" stroke="#000000" stroke-width="1" fill="none"></path></g><g transform="translate(401.50392649323067 180.5) rotate(0 -15.543928295561784 53.865719253139105)"><path d="M-20.78 113.62 C-26.13 111.92, -29.35 108, -31.3 104.37 M-20.54 113.18 C-25.19 110.97, -30.32 106.93, -33.15 104.9" stroke="#000000" stroke-width="1" fill="none"></path></g></g><g stroke-linecap="round"><g transform="translate(457.80133986073963 181.19458526241135) rotate(0 30.35210773616876 45.23538372015577)"><path d="M-0.96 0.33 C-1.4 14, -14.18 68.49, -2.66 83.14 C8.86 97.78, 56.33 87.41, 68.16 88.2 M0.73 -0.55 C0.25 13.31, -14.11 66.42, -3.01 81.45 C8.1 96.48, 55.43 88.38, 67.37 89.63" stroke="#000000" stroke-width="1" fill="none"></path></g><g transform="translate(457.80133986073963 181.19458526241135) rotate(0 30.35210773616876 45.23538372015577)"><path d="M6.8 31.35 C5.26 20.75, 2.11 12.5, -1.12 1.47 M5.57 29.89 C3.07 18.53, 0.65 8.05, -0.17 -0.45" stroke="#000000" stroke-width="1" fill="none"></path></g><g transform="translate(457.80133986073963 181.19458526241135) rotate(0 30.35210773616876 45.23538372015577)"><path d="M-13.6 29.18 C-9.13 19.39, -6.27 11.77, -1.12 1.47 M-14.83 27.72 C-9.9 17.17, -4.92 7.48, -0.17 -0.45" stroke="#000000" stroke-width="1" fill="none"></path></g><g transform="translate(457.80133986073963 181.19458526241135) rotate(0 30.35210773616876 45.23538372015577)"><path d="M40.03 102.59 C48.98 97.6, 56.16 94.65, 67.22 90.78 M38.8 101.14 C49.21 96.37, 59.54 92.46, 68.16 88.85" stroke="#000000" stroke-width="1" fill="none"></path></g><g transform="translate(457.80133986073963 181.19458526241135) rotate(0 30.35210773616876 45.23538372015577)"><path d="M39.45 82.08 C48.75 83.12, 56.1 86.22, 67.22 90.78 M38.21 80.62 C49.03 83.31, 59.57 86.85, 68.16 88.85" stroke="#000000" stroke-width="1" fill="none"></path></g></g><g stroke-linecap="round"><g transform="translate(130.3462677850154 230.1701825731409) rotate(0 74.68579704548586 31.66998441982392)"><path d="M-0.23 -0.98 C1.98 8.51, -13.31 46.78, 12.32 57.27 C37.95 67.75, 130.01 60.92, 153.55 61.92 M-1.82 1.12 C0.3 10.7, -14.56 47.93, 11.2 58.25 C36.95 68.56, 128.97 62.53, 152.73 63.02" stroke="#000000" stroke-width="1" fill="none"></path></g><g transform="translate(130.3462677850154 230.1701825731409) rotate(0 74.68579704548586 31.66998441982392)"><path d="M7.71 26.9 C5.39 21.03, 4.38 14.82, 1.34 -2.5 M9.72 26.61 C6.52 16.3, 1.57 4.39, -0.99 -1.08" stroke="#000000" stroke-width="1" fill="none"></path></g><g transform="translate(130.3462677850154 230.1701825731409) rotate(0 74.68579704548586 31.66998441982392)"><path d="M-12.81 26.4 C-10.63 20.68, -7.14 14.58, 1.34 -2.5 M-10.8 26.11 C-5.81 15.91, -2.58 4.19, -0.99 -1.08" stroke="#000000" stroke-width="1" fill="none"></path></g><g transform="translate(130.3462677850154 230.1701825731409) rotate(0 74.68579704548586 31.66998441982392)"><path d="M123.11 73.27 C129.07 71.34, 136.29 69, 154.3 61.5 M125.12 72.98 C136.83 69.54, 146.86 64.65, 151.97 62.92" stroke="#000000" stroke-width="1" fill="none"></path></g><g transform="translate(130.3462677850154 230.1701825731409) rotate(0 74.68579704548586 31.66998441982392)"><path d="M122.71 52.75 C128.82 55.32, 136.13 57.47, 154.3 61.5 M124.72 52.47 C136.51 57.21, 146.7 60.5, 151.97 62.92" stroke="#000000" stroke-width="1" fill="none"></path></g></g><g transform="translate(573 72.5) rotate(0 75.5 12.5)"><text x="0" y="18" font-family="Virgil, Segoe UI Emoji" font-size="20px" fill="#000000" text-anchor="start" style="white-space: pre;" direction="ltr">Api de cotação</text></g><g stroke-linecap="round"><g transform="translate(465.0000000000001 132.31621273908772) rotate(0 70.15779893342403 -0.5977778140323835)"><path d="M-0.61 0.88 C22.74 0.75, 117.56 0.05, 140.93 -0.1 M1.27 0.3 C24.44 -0.28, 116.76 -1.67, 140.22 -2.08" stroke="#000000" stroke-width="1" fill="none"></path></g><g transform="translate(465.0000000000001 132.31621273908772) rotate(0 70.15779893342403 -0.5977778140323835)"><path d="M28.98 -8.8 C17.73 -7.32, 7.62 -2.72, -2.24 2.76 M27.7 -8.71 C21.25 -7.36, 16.08 -5.52, 0.31 1.75" stroke="#000000" stroke-width="1" fill="none"></path></g><g transform="translate(465.0000000000001 132.31621273908772) rotate(0 70.15779893342403 -0.5977778140323835)"><path d="M29.12 11.72 C17.7 5.69, 7.54 2.78, -2.24 2.76 M27.84 11.81 C21.42 8.97, 16.22 6.63, 0.31 1.75" stroke="#000000" stroke-width="1" fill="none"></path></g><g transform="translate(465.0000000000001 132.31621273908772) rotate(0 70.15779893342403 -0.5977778140323835)"><path d="M113.67 9.41 C122.85 3.43, 133.29 0.29, 138.59 -0.19 M112.39 9.51 C117.46 6.34, 123.75 3.87, 141.14 -1.21" stroke="#000000" stroke-width="1" fill="none"></path></g><g transform="translate(465.0000000000001 132.31621273908772) rotate(0 70.15779893342403 -0.5977778140323835)"><path d="M113.34 -11.11 C122.76 -9.58, 133.32 -5.21, 138.59 -0.19 M112.06 -11.01 C117.14 -9.99, 123.5 -8.27, 141.14 -1.21" stroke="#000000" stroke-width="1" fill="none"></path></g></g><g stroke-linecap="round" transform="translate(243 36) rotate(0 30.5 30)"><path d="M1.37 -1.42 C15.74 -0.48, 30.13 1.5, 60.67 -0.45 M-0.81 0.51 C21.89 0.19, 41.86 1.39, 61.56 -0.88 M59.27 -0.82 C63.05 11.6, 62.49 28.46, 60.49 61.38 M61.93 0.45 C59.76 17.91, 61.06 33.65, 61.98 59.88 M59.45 58.02 C36.89 61, 11.2 60.19, 0.03 59.27 M60.31 60.1 C45.84 60.25, 29.78 60.46, 0.31 59.2 M-0.6 58.54 C-0.02 42.57, -0.47 24.26, -0.24 1.41 M-0.56 60.31 C1.15 40.87, -0.37 19.39, 0.35 -0.37" stroke="#000000" stroke-width="1" fill="none"></path></g><g stroke-linecap="round"><g transform="translate(275.5 106) rotate(0 51.120200890728825 17.12929287844598)"><path d="M-1.1 0.11 C0.54 5.53, -7.39 28.32, 10.08 33.41 C27.55 38.5, 87.91 31.07, 103.73 30.65 M0.52 -0.88 C2.08 4.09, -7.35 26.05, 9.7 31.5 C26.75 36.94, 86.81 31.71, 102.82 31.78" stroke="#000000" stroke-width="1" fill="none"></path></g><g transform="translate(275.5 106) rotate(0 51.120200890728825 17.12929287844598)"><path d="M75.24 44.94 C84.5 39.32, 92.1 37.82, 102.62 30.74 M75.62 42.83 C84.48 40.22, 94.23 36.07, 102.27 32.11" stroke="#000000" stroke-width="1" fill="none"></path></g><g transform="translate(275.5 106) rotate(0 51.120200890728825 17.12929287844598)"><path d="M74.43 24.44 C84.11 25.36, 91.96 30.41, 102.62 30.74 M74.82 22.32 C83.86 26.67, 93.88 29.46, 102.27 32.11" stroke="#000000" stroke-width="1" fill="none"></path></g></g><g transform="translate(236.5 10) rotate(0 38.5 12.5)"><text x="0" y="18" font-family="Virgil, Segoe UI Emoji" font-size="20px" fill="#000000" text-anchor="start" style="white-space: pre;" direction="ltr">CronJob</text></g><g stroke-linecap="round" transform="translate(618 107) rotate(0 30.5 30)"><path d="M1.22 -1.18 C21.77 0.59, 46.31 -0.59, 59.36 1.66 M0.38 0.59 C14.13 0.84, 27.76 1.25, 61.56 0.23 M59.55 0.3 C62.39 23.67, 59.6 43.92, 59.34 58.52 M61.28 -0.38 C59.97 17.43, 59.81 36.01, 60.6 59.08 M61.13 60.95 C49.11 61.41, 36.41 59.18, 1.62 59.47 M61.58 60.59 C39.36 61.03, 17.87 59.45, 0.2 59.57 M-1.71 61.34 C0.66 43.91, 1.11 32.72, 0.58 0.78 M0.33 60.14 C-0.38 41.97, 0.25 22.29, 0.43 0.23" stroke="#000000" stroke-width="1" fill="none"></path></g></svg>