<svg xmlns="http://www.w3.org/2000/svg" width="36" height="34" viewBox="0 0 36 34">
    <g fill="#FFF" fill-rule="evenodd">
        <path d="M17.964 33.895C5.276 33.895-.491 24.955.033 11.65c0-.987.891-1.299 2.464-1.299 1.468 0 2.674.208 2.621 1.3-.314 10.601 2.936 17.357 12.846 17.357 10.014 0 13.264-6.912 12.845-17.358-.053-1.091 1.154-1.299 2.621-1.299 1.573 0 2.465.312 2.465 1.3.524 13.46-5.348 22.243-17.931 22.243"/>
        <path d="M9.971 9.19l.053 7.712c0 1.109 1.12 1.426 2.398 1.373 1.652-.053 2.664-.423 2.558-1.532a232.431 232.431 0 0 1-.461-5.388 94.835 94.835 0 0 1 3.445-.052c1.44 0 2.437.076 3.385.137a232.395 232.395 0 0 1-.455 5.303c-.106 1.11.906 1.48 2.558 1.532 1.279.053 2.398-.264 2.398-1.373l.053-7.712c.16-3.116.426-4.7.746-7.13.107-1.057-.746-1.585-2.451-1.69-1.439-.106-2.61.21-2.61 1.32.059 2.047.044 3.955-.022 5.806a68.882 68.882 0 0 1-7.258-.01 88.717 88.717 0 0 1-.02-5.796c0-1.11-1.173-1.426-2.612-1.32-1.705.105-2.558.633-2.451 1.69.32 2.43.586 4.014.746 7.13"/>
    </g>
</svg>
