<svg xmlns="http://www.w3.org/2000/svg" fill="none" aria-hidden="true" viewBox="0 0 28 20"><path fill="#F7931A" d="M0 0v20h28V0H0zm18.426 13.549a3.494 3.494 0 01-.873.995c-.398.25-.825.453-1.271.603-.206.036-.437.049-.649.078v1.755h-1.596v-1.676h-1.595v1.676h-1.596v-1.676H9.25V4.407h1.596V2.73h1.596v1.677h1.595V2.73h1.596v1.755l.474.079a3.58 3.58 0 011.122.419c.322.198.575.49.723.838.166.398.243.827.224 1.258.017.485-.123.962-.398 1.362-.313.404-.726.72-1.197.916a2.677 2.677 0 011.596.996 3.28 3.28 0 01.573 1.755c.026.5-.086 1-.324 1.44z"/><path fill="#F7931A" d="M15.31 8.257c.317-.167.398-.49.398-.995 0-.21-.052-.417-.15-.603a.785.785 0 00-.399-.314 1.157 1.157 0 00-.573-.183c-.2-.073-.412-.1-.623-.079h-2.32v2.515h2.544a1.64 1.64 0 001.122-.34zm.573 2.437a2.689 2.689 0 00-1.447-.42h-2.792v3.353h2.718c.268.016.537-.01.797-.078a4.83 4.83 0 00.624-.262 1.4 1.4 0 00.499-.498c.096-.242.147-.5.15-.76a1.487 1.487 0 00-.55-1.335z"/></svg>